<mxfile host="app.diagrams.net" modified="2024-05-11T02:32:18.486Z" agent="Mozilla/5.0 (Macintosh; Intel Mac OS X 10_15_7) AppleWebKit/537.36 (KHTML, like Gecko) Chrome/124.0.0.0 Safari/537.36" etag="xcllSuHjw7xBI4o2ffYH" version="24.4.0" type="device">
  <diagram name="Page-1" id="W7C-GljIfZ4P1UNnJ8VW">
    <mxGraphModel dx="1190" dy="1158" grid="1" gridSize="10" guides="1" tooltips="1" connect="1" arrows="1" fold="1" page="1" pageScale="1" pageWidth="1100" pageHeight="1700" math="0" shadow="0">
      <root>
        <mxCell id="0" />
        <mxCell id="1" parent="0" />
        <mxCell id="EQ2n3HJwGBfDBryqR1mt-46" value="" style="shape=note;whiteSpace=wrap;html=1;backgroundOutline=1;darkOpacity=0.05;" vertex="1" parent="1">
          <mxGeometry x="610" y="320" width="490" height="340" as="geometry" />
        </mxCell>
        <mxCell id="EQ2n3HJwGBfDBryqR1mt-45" value="" style="shape=note;whiteSpace=wrap;html=1;backgroundOutline=1;darkOpacity=0.05;" vertex="1" parent="1">
          <mxGeometry x="210" y="420" width="390" height="240" as="geometry" />
        </mxCell>
        <mxCell id="EQ2n3HJwGBfDBryqR1mt-1" value="User&lt;div&gt;&lt;br&gt;&lt;/div&gt;" style="shape=umlActor;verticalLabelPosition=bottom;verticalAlign=top;html=1;outlineConnect=0;" vertex="1" parent="1">
          <mxGeometry x="350" y="180" width="30" height="60" as="geometry" />
        </mxCell>
        <mxCell id="EQ2n3HJwGBfDBryqR1mt-8" style="edgeStyle=orthogonalEdgeStyle;rounded=0;orthogonalLoop=1;jettySize=auto;html=1;entryX=0.5;entryY=0;entryDx=0;entryDy=0;entryPerimeter=0;" edge="1" parent="1" source="EQ2n3HJwGBfDBryqR1mt-2" target="EQ2n3HJwGBfDBryqR1mt-6">
          <mxGeometry relative="1" as="geometry">
            <mxPoint x="70" y="460" as="targetPoint" />
          </mxGeometry>
        </mxCell>
        <mxCell id="EQ2n3HJwGBfDBryqR1mt-2" value="Front end Logic+Data&lt;span style=&quot;background-color: initial;&quot;&gt;&amp;nbsp;(D)&lt;/span&gt;&lt;div&gt;1) token&lt;br&gt;2) amount&lt;/div&gt;&lt;div&gt;3)&amp;nbsp;&lt;span style=&quot;background-color: initial;&quot;&gt;fee choice&lt;/span&gt;&lt;/div&gt;" style="shape=note;whiteSpace=wrap;html=1;backgroundOutline=1;darkOpacity=0.05;" vertex="1" parent="1">
          <mxGeometry x="15" y="560" width="110" height="140" as="geometry" />
        </mxCell>
        <mxCell id="EQ2n3HJwGBfDBryqR1mt-5" style="edgeStyle=orthogonalEdgeStyle;rounded=0;orthogonalLoop=1;jettySize=auto;html=1;entryX=0.5;entryY=0;entryDx=0;entryDy=0;entryPerimeter=0;" edge="1" parent="1" source="EQ2n3HJwGBfDBryqR1mt-1" target="EQ2n3HJwGBfDBryqR1mt-2">
          <mxGeometry relative="1" as="geometry">
            <mxPoint x="400" y="220" as="sourcePoint" />
            <mxPoint x="168" y="361" as="targetPoint" />
          </mxGeometry>
        </mxCell>
        <mxCell id="EQ2n3HJwGBfDBryqR1mt-6" value="Write to Input Network" style="shape=cylinder3;whiteSpace=wrap;html=1;boundedLbl=1;backgroundOutline=1;size=15;" vertex="1" parent="1">
          <mxGeometry x="15" y="730" width="110" height="140" as="geometry" />
        </mxCell>
        <mxCell id="EQ2n3HJwGBfDBryqR1mt-21" style="edgeStyle=orthogonalEdgeStyle;rounded=0;orthogonalLoop=1;jettySize=auto;html=1;exitX=0.5;exitY=0;exitDx=0;exitDy=0;exitPerimeter=0;entryX=0.5;entryY=1;entryDx=0;entryDy=0;" edge="1" parent="1" source="EQ2n3HJwGBfDBryqR1mt-7" target="EQ2n3HJwGBfDBryqR1mt-22">
          <mxGeometry relative="1" as="geometry">
            <mxPoint x="505" y="720" as="sourcePoint" />
            <Array as="points">
              <mxPoint x="585" y="700" />
              <mxPoint x="485" y="700" />
            </Array>
          </mxGeometry>
        </mxCell>
        <mxCell id="EQ2n3HJwGBfDBryqR1mt-23" value="To Foreign" style="edgeLabel;html=1;align=center;verticalAlign=middle;resizable=0;points=[];" vertex="1" connectable="0" parent="EQ2n3HJwGBfDBryqR1mt-21">
          <mxGeometry x="0.49" y="-2" relative="1" as="geometry">
            <mxPoint as="offset" />
          </mxGeometry>
        </mxCell>
        <mxCell id="EQ2n3HJwGBfDBryqR1mt-25" style="edgeStyle=orthogonalEdgeStyle;rounded=0;orthogonalLoop=1;jettySize=auto;html=1;entryX=0.5;entryY=1;entryDx=0;entryDy=0;exitX=0.5;exitY=0;exitDx=0;exitDy=0;exitPerimeter=0;" edge="1" parent="1" source="EQ2n3HJwGBfDBryqR1mt-7" target="EQ2n3HJwGBfDBryqR1mt-24">
          <mxGeometry relative="1" as="geometry">
            <mxPoint x="505" y="720" as="sourcePoint" />
            <Array as="points">
              <mxPoint x="585" y="700" />
              <mxPoint x="315" y="700" />
            </Array>
          </mxGeometry>
        </mxCell>
        <mxCell id="EQ2n3HJwGBfDBryqR1mt-26" value="To Home" style="edgeLabel;html=1;align=center;verticalAlign=middle;resizable=0;points=[];" vertex="1" connectable="0" parent="EQ2n3HJwGBfDBryqR1mt-25">
          <mxGeometry x="0.7243" y="-1" relative="1" as="geometry">
            <mxPoint as="offset" />
          </mxGeometry>
        </mxCell>
        <mxCell id="EQ2n3HJwGBfDBryqR1mt-27" value="&lt;span style=&quot;font-size: 12px; text-wrap: wrap; background-color: rgb(251, 251, 251);&quot;&gt;CURRENT&lt;/span&gt;" style="edgeLabel;html=1;align=center;verticalAlign=middle;resizable=0;points=[];" vertex="1" connectable="0" parent="EQ2n3HJwGBfDBryqR1mt-25">
          <mxGeometry x="-0.9152" y="-2" relative="1" as="geometry">
            <mxPoint x="-77" y="-23" as="offset" />
          </mxGeometry>
        </mxCell>
        <mxCell id="EQ2n3HJwGBfDBryqR1mt-38" style="edgeStyle=orthogonalEdgeStyle;rounded=0;orthogonalLoop=1;jettySize=auto;html=1;entryX=0.233;entryY=1;entryDx=0;entryDy=0;entryPerimeter=0;" edge="1" parent="1" source="EQ2n3HJwGBfDBryqR1mt-7" target="EQ2n3HJwGBfDBryqR1mt-46">
          <mxGeometry relative="1" as="geometry">
            <Array as="points">
              <mxPoint x="585" y="700" />
              <mxPoint x="724" y="700" />
            </Array>
          </mxGeometry>
        </mxCell>
        <mxCell id="EQ2n3HJwGBfDBryqR1mt-39" value="PROPOSAL" style="edgeLabel;html=1;align=center;verticalAlign=middle;resizable=0;points=[];" vertex="1" connectable="0" parent="EQ2n3HJwGBfDBryqR1mt-38">
          <mxGeometry x="0.1429" y="4" relative="1" as="geometry">
            <mxPoint x="-39" y="-16" as="offset" />
          </mxGeometry>
        </mxCell>
        <mxCell id="EQ2n3HJwGBfDBryqR1mt-43" value="To Home" style="edgeLabel;html=1;align=center;verticalAlign=middle;resizable=0;points=[];" vertex="1" connectable="0" parent="EQ2n3HJwGBfDBryqR1mt-38">
          <mxGeometry x="0.7714" y="2" relative="1" as="geometry">
            <mxPoint y="28" as="offset" />
          </mxGeometry>
        </mxCell>
        <mxCell id="EQ2n3HJwGBfDBryqR1mt-40" style="edgeStyle=orthogonalEdgeStyle;rounded=0;orthogonalLoop=1;jettySize=auto;html=1;entryX=0.747;entryY=1;entryDx=0;entryDy=0;entryPerimeter=0;" edge="1" parent="1" source="EQ2n3HJwGBfDBryqR1mt-7" target="EQ2n3HJwGBfDBryqR1mt-46">
          <mxGeometry relative="1" as="geometry">
            <Array as="points">
              <mxPoint x="585" y="700" />
              <mxPoint x="975" y="700" />
            </Array>
          </mxGeometry>
        </mxCell>
        <mxCell id="EQ2n3HJwGBfDBryqR1mt-44" value="To Foreign" style="edgeLabel;html=1;align=center;verticalAlign=middle;resizable=0;points=[];" vertex="1" connectable="0" parent="EQ2n3HJwGBfDBryqR1mt-40">
          <mxGeometry x="0.8356" y="-1" relative="1" as="geometry">
            <mxPoint x="-1" y="23" as="offset" />
          </mxGeometry>
        </mxCell>
        <mxCell id="EQ2n3HJwGBfDBryqR1mt-7" value="Write to Output Network" style="shape=cylinder3;whiteSpace=wrap;html=1;boundedLbl=1;backgroundOutline=1;size=15;" vertex="1" parent="1">
          <mxGeometry x="530" y="720" width="110" height="140" as="geometry" />
        </mxCell>
        <mxCell id="EQ2n3HJwGBfDBryqR1mt-9" value="Validators" style="shape=cube;whiteSpace=wrap;html=1;boundedLbl=1;backgroundOutline=1;darkOpacity=0.05;darkOpacity2=0.1;" vertex="1" parent="1">
          <mxGeometry x="160" y="960" width="120" height="80" as="geometry" />
        </mxCell>
        <mxCell id="EQ2n3HJwGBfDBryqR1mt-10" style="edgeStyle=orthogonalEdgeStyle;rounded=0;orthogonalLoop=1;jettySize=auto;html=1;exitX=0.5;exitY=1;exitDx=0;exitDy=0;exitPerimeter=0;entryX=0;entryY=0;entryDx=0;entryDy=30;entryPerimeter=0;" edge="1" parent="1" source="EQ2n3HJwGBfDBryqR1mt-6" target="EQ2n3HJwGBfDBryqR1mt-9">
          <mxGeometry relative="1" as="geometry" />
        </mxCell>
        <mxCell id="EQ2n3HJwGBfDBryqR1mt-11" value="Read" style="edgeLabel;html=1;align=center;verticalAlign=middle;resizable=0;points=[];" vertex="1" connectable="0" parent="EQ2n3HJwGBfDBryqR1mt-10">
          <mxGeometry x="-0.1152" y="3" relative="1" as="geometry">
            <mxPoint x="52" y="27" as="offset" />
          </mxGeometry>
        </mxCell>
        <mxCell id="EQ2n3HJwGBfDBryqR1mt-16" value="&lt;div&gt;If home-&amp;gt;foreign,&amp;nbsp;&lt;/div&gt;&lt;div&gt;then take fees&lt;/div&gt;" style="shape=hexagon;perimeter=hexagonPerimeter2;whiteSpace=wrap;html=1;fixedSize=1;" vertex="1" parent="1">
          <mxGeometry x="10" y="870" width="120" height="80" as="geometry" />
        </mxCell>
        <mxCell id="EQ2n3HJwGBfDBryqR1mt-17" value="" style="edgeStyle=orthogonalEdgeStyle;rounded=0;orthogonalLoop=1;jettySize=auto;html=1;entryX=0.5;entryY=1;entryDx=0;entryDy=0;entryPerimeter=0;" edge="1" parent="1" source="EQ2n3HJwGBfDBryqR1mt-9" target="EQ2n3HJwGBfDBryqR1mt-15">
          <mxGeometry relative="1" as="geometry">
            <mxPoint x="400" y="1000" as="sourcePoint" />
            <mxPoint x="585" y="860" as="targetPoint" />
            <Array as="points">
              <mxPoint x="585" y="1000" />
            </Array>
          </mxGeometry>
        </mxCell>
        <mxCell id="EQ2n3HJwGBfDBryqR1mt-18" value="Write" style="edgeLabel;html=1;align=center;verticalAlign=middle;resizable=0;points=[];" vertex="1" connectable="0" parent="EQ2n3HJwGBfDBryqR1mt-17">
          <mxGeometry x="-0.1879" relative="1" as="geometry">
            <mxPoint as="offset" />
          </mxGeometry>
        </mxCell>
        <mxCell id="EQ2n3HJwGBfDBryqR1mt-15" value="Fees taken&amp;nbsp;&lt;div&gt;here during&amp;nbsp;&lt;div&gt;foreign-&amp;gt;home&lt;/div&gt;&lt;/div&gt;" style="shape=hexagon;perimeter=hexagonPerimeter2;whiteSpace=wrap;html=1;fixedSize=1;" vertex="1" parent="1">
          <mxGeometry x="525" y="860" width="120" height="80" as="geometry" />
        </mxCell>
        <mxCell id="EQ2n3HJwGBfDBryqR1mt-29" style="edgeStyle=orthogonalEdgeStyle;rounded=0;orthogonalLoop=1;jettySize=auto;html=1;" edge="1" parent="1" source="EQ2n3HJwGBfDBryqR1mt-22" target="EQ2n3HJwGBfDBryqR1mt-1">
          <mxGeometry relative="1" as="geometry">
            <mxPoint x="410" y="250" as="targetPoint" />
            <Array as="points">
              <mxPoint x="485" y="360" />
              <mxPoint x="365" y="360" />
            </Array>
          </mxGeometry>
        </mxCell>
        <mxCell id="EQ2n3HJwGBfDBryqR1mt-22" value="&lt;div&gt;&lt;span style=&quot;background-color: initial;&quot;&gt;User writes&amp;nbsp;&lt;/span&gt;&lt;br&gt;&lt;/div&gt;&lt;div&gt;signatures&lt;/div&gt;" style="shape=hexagon;perimeter=hexagonPerimeter2;whiteSpace=wrap;html=1;fixedSize=1;" vertex="1" parent="1">
          <mxGeometry x="400" y="470" width="170" height="110" as="geometry" />
        </mxCell>
        <mxCell id="EQ2n3HJwGBfDBryqR1mt-28" style="edgeStyle=orthogonalEdgeStyle;rounded=0;orthogonalLoop=1;jettySize=auto;html=1;" edge="1" parent="1" source="EQ2n3HJwGBfDBryqR1mt-24" target="EQ2n3HJwGBfDBryqR1mt-1">
          <mxGeometry relative="1" as="geometry">
            <Array as="points">
              <mxPoint x="315" y="360" />
              <mxPoint x="365" y="360" />
            </Array>
          </mxGeometry>
        </mxCell>
        <mxCell id="EQ2n3HJwGBfDBryqR1mt-31" value="&lt;span style=&quot;font-size: 12px; text-wrap: wrap; background-color: rgb(251, 251, 251);&quot;&gt;tokens transferred&lt;/span&gt;" style="edgeLabel;html=1;align=center;verticalAlign=middle;resizable=0;points=[];" vertex="1" connectable="0" parent="EQ2n3HJwGBfDBryqR1mt-28">
          <mxGeometry x="0.4714" y="-2" relative="1" as="geometry">
            <mxPoint x="-2" y="-34" as="offset" />
          </mxGeometry>
        </mxCell>
        <mxCell id="EQ2n3HJwGBfDBryqR1mt-24" value="&lt;div&gt;&lt;span style=&quot;background-color: initial;&quot;&gt;Last validator triggers&amp;nbsp;&lt;/span&gt;&lt;/div&gt;&lt;div&gt;&lt;span style=&quot;background-color: initial;&quot;&gt;token release&amp;nbsp;&lt;/span&gt;&lt;span style=&quot;background-color: initial;&quot;&gt;&amp;nbsp;&lt;/span&gt;&lt;/div&gt;&lt;div&gt;+ takes fees&lt;/div&gt;" style="shape=hexagon;perimeter=hexagonPerimeter2;whiteSpace=wrap;html=1;fixedSize=1;" vertex="1" parent="1">
          <mxGeometry x="230" y="470" width="170" height="110" as="geometry" />
        </mxCell>
        <mxCell id="EQ2n3HJwGBfDBryqR1mt-42" style="edgeStyle=orthogonalEdgeStyle;rounded=0;orthogonalLoop=1;jettySize=auto;html=1;exitX=0.5;exitY=0;exitDx=0;exitDy=0;exitPerimeter=0;" edge="1" parent="1" source="EQ2n3HJwGBfDBryqR1mt-46" target="EQ2n3HJwGBfDBryqR1mt-1">
          <mxGeometry relative="1" as="geometry">
            <mxPoint x="890" y="350" as="sourcePoint" />
            <Array as="points">
              <mxPoint x="855" y="300" />
              <mxPoint x="365" y="300" />
            </Array>
          </mxGeometry>
        </mxCell>
        <mxCell id="EQ2n3HJwGBfDBryqR1mt-51" value="No" style="edgeStyle=orthogonalEdgeStyle;rounded=0;orthogonalLoop=1;jettySize=auto;html=1;entryX=0.5;entryY=1;entryDx=0;entryDy=0;exitX=0.5;exitY=0;exitDx=0;exitDy=0;" edge="1" parent="1" source="EQ2n3HJwGBfDBryqR1mt-388" target="EQ2n3HJwGBfDBryqR1mt-50">
          <mxGeometry x="-0.2463" y="10" relative="1" as="geometry">
            <Array as="points">
              <mxPoint x="855" y="460" />
              <mxPoint x="815" y="460" />
            </Array>
            <mxPoint x="-10" y="10" as="offset" />
          </mxGeometry>
        </mxCell>
        <mxCell id="EQ2n3HJwGBfDBryqR1mt-35" value="Someone writes&amp;nbsp;&lt;div&gt;signatures&lt;/div&gt;" style="shape=hexagon;perimeter=hexagonPerimeter2;whiteSpace=wrap;html=1;fixedSize=1;" vertex="1" parent="1">
          <mxGeometry x="850" y="570" width="250" height="40" as="geometry" />
        </mxCell>
        <mxCell id="EQ2n3HJwGBfDBryqR1mt-37" value="&lt;div&gt;&lt;span style=&quot;background-color: initial;&quot;&gt;Last validator triggers&amp;nbsp;&lt;/span&gt;&lt;/div&gt;&lt;div&gt;&lt;span style=&quot;background-color: initial;&quot;&gt;token release&amp;nbsp;&lt;/span&gt;&lt;span style=&quot;background-color: initial;&quot;&gt;&amp;nbsp;&lt;/span&gt;&lt;/div&gt;&lt;div&gt;+ takes fees (gas efficient distribution)&lt;/div&gt;" style="shape=hexagon;perimeter=hexagonPerimeter2;whiteSpace=wrap;html=1;fixedSize=1;" vertex="1" parent="1">
          <mxGeometry x="610" y="510" width="150" height="100" as="geometry" />
        </mxCell>
        <mxCell id="EQ2n3HJwGBfDBryqR1mt-48" value="WETHOmnibridgeRouter&lt;div&gt;Only handles WETH -&amp;gt; Native&lt;/div&gt;" style="text;html=1;align=center;verticalAlign=middle;whiteSpace=wrap;rounded=0;" vertex="1" parent="1">
          <mxGeometry x="300" y="390" width="190" height="30" as="geometry" />
        </mxCell>
        <mxCell id="EQ2n3HJwGBfDBryqR1mt-47" value="&lt;font color=&quot;#000000&quot;&gt;OmnibridgeRouter&lt;/font&gt;&lt;div&gt;&lt;font color=&quot;#000000&quot;&gt;Capable of handling + all Tokens including WETH-&amp;gt;Native&lt;/font&gt;&lt;/div&gt;" style="text;html=1;align=center;verticalAlign=middle;whiteSpace=wrap;rounded=0;fontColor=#00CC00;" vertex="1" parent="1">
          <mxGeometry x="780" y="260" width="180" height="30" as="geometry" />
        </mxCell>
        <mxCell id="EQ2n3HJwGBfDBryqR1mt-382" style="edgeStyle=orthogonalEdgeStyle;rounded=0;orthogonalLoop=1;jettySize=auto;html=1;exitX=0.5;exitY=0;exitDx=0;exitDy=0;" edge="1" parent="1" source="EQ2n3HJwGBfDBryqR1mt-50">
          <mxGeometry relative="1" as="geometry">
            <mxPoint x="795" y="320" as="targetPoint" />
            <Array as="points">
              <mxPoint x="795" y="320" />
            </Array>
          </mxGeometry>
        </mxCell>
        <mxCell id="EQ2n3HJwGBfDBryqR1mt-50" value="No Fees" style="shape=hexagon;perimeter=hexagonPerimeter2;whiteSpace=wrap;html=1;fixedSize=1;" vertex="1" parent="1">
          <mxGeometry x="760" y="350.99" width="70" height="60" as="geometry" />
        </mxCell>
        <mxCell id="EQ2n3HJwGBfDBryqR1mt-411" style="edgeStyle=orthogonalEdgeStyle;rounded=0;orthogonalLoop=1;jettySize=auto;html=1;exitX=0;exitY=0.25;exitDx=0;exitDy=0;entryX=0.5;entryY=1;entryDx=0;entryDy=0;" edge="1" parent="1" source="EQ2n3HJwGBfDBryqR1mt-53" target="EQ2n3HJwGBfDBryqR1mt-410">
          <mxGeometry relative="1" as="geometry">
            <Array as="points">
              <mxPoint x="989" y="510" />
            </Array>
          </mxGeometry>
        </mxCell>
        <mxCell id="EQ2n3HJwGBfDBryqR1mt-53" value="Fees defined&amp;nbsp;&lt;div&gt;by constant or other muliplier&lt;/div&gt;" style="shape=hexagon;perimeter=hexagonPerimeter2;whiteSpace=wrap;html=1;fixedSize=1;" vertex="1" parent="1">
          <mxGeometry x="980" y="495" width="120" height="60" as="geometry" />
        </mxCell>
        <mxCell id="EQ2n3HJwGBfDBryqR1mt-54" style="edgeStyle=orthogonalEdgeStyle;rounded=0;orthogonalLoop=1;jettySize=auto;html=1;exitX=0;exitY=0.5;exitDx=0;exitDy=0;entryX=0;entryY=0.5;entryDx=0;entryDy=0;" edge="1" parent="1" source="EQ2n3HJwGBfDBryqR1mt-35" target="EQ2n3HJwGBfDBryqR1mt-388">
          <mxGeometry relative="1" as="geometry">
            <mxPoint x="1054" y="550" as="sourcePoint" />
            <mxPoint x="1010" y="510" as="targetPoint" />
            <Array as="points">
              <mxPoint x="810" y="590" />
            </Array>
          </mxGeometry>
        </mxCell>
        <mxCell id="EQ2n3HJwGBfDBryqR1mt-385" value="Efficient Validator Fee Distribution&lt;div&gt;(only active after owner switches fee manager)&lt;/div&gt;" style="rounded=0;whiteSpace=wrap;html=1;" vertex="1" parent="1">
          <mxGeometry x="610" y="610" width="490" height="50" as="geometry" />
        </mxCell>
        <mxCell id="EQ2n3HJwGBfDBryqR1mt-398" style="edgeStyle=orthogonalEdgeStyle;rounded=0;orthogonalLoop=1;jettySize=auto;html=1;exitX=1;exitY=0.5;exitDx=0;exitDy=0;entryX=0;entryY=0.75;entryDx=0;entryDy=0;" edge="1" parent="1" source="EQ2n3HJwGBfDBryqR1mt-388">
          <mxGeometry relative="1" as="geometry">
            <mxPoint x="890" y="526.05" as="sourcePoint" />
            <mxPoint x="988.5714285714284" y="533.9071428571428" as="targetPoint" />
            <Array as="points">
              <mxPoint x="890" y="534" />
            </Array>
          </mxGeometry>
        </mxCell>
        <mxCell id="EQ2n3HJwGBfDBryqR1mt-399" value="Yes" style="edgeLabel;html=1;align=center;verticalAlign=middle;resizable=0;points=[];" vertex="1" connectable="0" parent="EQ2n3HJwGBfDBryqR1mt-398">
          <mxGeometry x="0.0444" y="-4" relative="1" as="geometry">
            <mxPoint y="-9" as="offset" />
          </mxGeometry>
        </mxCell>
        <mxCell id="EQ2n3HJwGBfDBryqR1mt-388" value="User&amp;nbsp;&lt;div&gt;Consent to fees?&lt;/div&gt;" style="rhombus;whiteSpace=wrap;html=1;" vertex="1" parent="1">
          <mxGeometry x="810" y="490" width="80" height="80" as="geometry" />
        </mxCell>
        <mxCell id="EQ2n3HJwGBfDBryqR1mt-409" value="" style="group" vertex="1" connectable="0" parent="1">
          <mxGeometry x="850" y="350.99" width="210" height="70" as="geometry" />
        </mxCell>
        <mxCell id="EQ2n3HJwGBfDBryqR1mt-400" value="" style="shape=hexagon;perimeter=hexagonPerimeter2;whiteSpace=wrap;html=1;fixedSize=1;size=20;" vertex="1" parent="EQ2n3HJwGBfDBryqR1mt-409">
          <mxGeometry y="-8.538667967797021" width="210" height="69.99999999999999" as="geometry" />
        </mxCell>
        <mxCell id="EQ2n3HJwGBfDBryqR1mt-401" value="Fees go to&lt;div&gt;&amp;nbsp;Reward Addrs&lt;/div&gt;" style="text;html=1;align=center;verticalAlign=middle;whiteSpace=wrap;rounded=0;" vertex="1" parent="EQ2n3HJwGBfDBryqR1mt-409">
          <mxGeometry x="20" y="13.653330080507446" width="90" height="25.616003903391068" as="geometry" />
        </mxCell>
        <mxCell id="EQ2n3HJwGBfDBryqR1mt-406" value="" style="endArrow=none;html=1;rounded=0;exitX=0.625;exitY=1;exitDx=0;exitDy=0;entryX=0.375;entryY=0;entryDx=0;entryDy=0;" edge="1" parent="EQ2n3HJwGBfDBryqR1mt-409" source="EQ2n3HJwGBfDBryqR1mt-400" target="EQ2n3HJwGBfDBryqR1mt-400">
          <mxGeometry width="50" height="50" relative="1" as="geometry">
            <mxPoint x="60" y="42.69333983898511" as="sourcePoint" />
            <mxPoint x="110" as="targetPoint" />
          </mxGeometry>
        </mxCell>
        <mxCell id="EQ2n3HJwGBfDBryqR1mt-407" value="Reimbersement to Tx Runner" style="text;html=1;align=center;verticalAlign=middle;whiteSpace=wrap;rounded=0;" vertex="1" parent="EQ2n3HJwGBfDBryqR1mt-409">
          <mxGeometry x="110" y="13.653330080507446" width="90" height="25.616003903391068" as="geometry" />
        </mxCell>
        <mxCell id="EQ2n3HJwGBfDBryqR1mt-412" style="edgeStyle=orthogonalEdgeStyle;rounded=0;orthogonalLoop=1;jettySize=auto;html=1;entryX=0.105;entryY=0.976;entryDx=0;entryDy=0;entryPerimeter=0;" edge="1" parent="1" source="EQ2n3HJwGBfDBryqR1mt-410" target="EQ2n3HJwGBfDBryqR1mt-400">
          <mxGeometry relative="1" as="geometry">
            <mxPoint x="870" y="370" as="targetPoint" />
            <Array as="points">
              <mxPoint x="872" y="460" />
            </Array>
          </mxGeometry>
        </mxCell>
        <mxCell id="EQ2n3HJwGBfDBryqR1mt-413" value="No" style="edgeLabel;html=1;align=center;verticalAlign=middle;resizable=0;points=[];" vertex="1" connectable="0" parent="EQ2n3HJwGBfDBryqR1mt-412">
          <mxGeometry x="0.0043" y="-1" relative="1" as="geometry">
            <mxPoint x="7" y="1" as="offset" />
          </mxGeometry>
        </mxCell>
        <mxCell id="EQ2n3HJwGBfDBryqR1mt-417" style="edgeStyle=orthogonalEdgeStyle;rounded=0;orthogonalLoop=1;jettySize=auto;html=1;exitX=1;exitY=0.5;exitDx=0;exitDy=0;entryX=0.5;entryY=1;entryDx=0;entryDy=0;" edge="1" parent="1" source="EQ2n3HJwGBfDBryqR1mt-410" target="EQ2n3HJwGBfDBryqR1mt-400">
          <mxGeometry relative="1" as="geometry">
            <mxPoint x="1000" y="402" as="targetPoint" />
            <Array as="points">
              <mxPoint x="1000" y="470" />
              <mxPoint x="1000" y="430" />
              <mxPoint x="955" y="430" />
            </Array>
          </mxGeometry>
        </mxCell>
        <mxCell id="EQ2n3HJwGBfDBryqR1mt-419" value="Yes" style="edgeLabel;html=1;align=center;verticalAlign=middle;resizable=0;points=[];" vertex="1" connectable="0" parent="EQ2n3HJwGBfDBryqR1mt-417">
          <mxGeometry x="0.0685" y="-2" relative="1" as="geometry">
            <mxPoint x="10" y="11" as="offset" />
          </mxGeometry>
        </mxCell>
        <mxCell id="EQ2n3HJwGBfDBryqR1mt-410" value="Reward Address Named?" style="rhombus;whiteSpace=wrap;html=1;" vertex="1" parent="1">
          <mxGeometry x="890" y="430" width="80" height="80" as="geometry" />
        </mxCell>
        <mxCell id="EQ2n3HJwGBfDBryqR1mt-420" style="edgeStyle=orthogonalEdgeStyle;rounded=0;orthogonalLoop=1;jettySize=auto;html=1;exitX=1;exitY=0.5;exitDx=0;exitDy=0;entryX=0.9;entryY=1;entryDx=0;entryDy=0;entryPerimeter=0;" edge="1" parent="1" source="EQ2n3HJwGBfDBryqR1mt-410" target="EQ2n3HJwGBfDBryqR1mt-400">
          <mxGeometry relative="1" as="geometry">
            <Array as="points">
              <mxPoint x="1000" y="470" />
              <mxPoint x="1000" y="430" />
              <mxPoint x="1039" y="430" />
            </Array>
          </mxGeometry>
        </mxCell>
        <mxCell id="EQ2n3HJwGBfDBryqR1mt-421" style="edgeStyle=orthogonalEdgeStyle;rounded=0;orthogonalLoop=1;jettySize=auto;html=1;exitX=0.5;exitY=0;exitDx=0;exitDy=0;entryX=0.702;entryY=0;entryDx=0;entryDy=0;entryPerimeter=0;" edge="1" parent="1" source="EQ2n3HJwGBfDBryqR1mt-400" target="EQ2n3HJwGBfDBryqR1mt-46">
          <mxGeometry relative="1" as="geometry" />
        </mxCell>
        <mxCell id="EQ2n3HJwGBfDBryqR1mt-422" style="edgeStyle=orthogonalEdgeStyle;rounded=0;orthogonalLoop=1;jettySize=auto;html=1;exitX=0.5;exitY=0;exitDx=0;exitDy=0;entryX=0.161;entryY=0.006;entryDx=0;entryDy=0;entryPerimeter=0;" edge="1" parent="1">
          <mxGeometry relative="1" as="geometry">
            <mxPoint x="730" y="510" as="sourcePoint" />
            <mxPoint x="733.8900000000001" y="322.03999999999996" as="targetPoint" />
            <Array as="points">
              <mxPoint x="670" y="510" />
              <mxPoint x="670" y="417" />
              <mxPoint x="734" y="417" />
            </Array>
          </mxGeometry>
        </mxCell>
      </root>
    </mxGraphModel>
  </diagram>
</mxfile>
